<svg xmlns="http://www.w3.org/2000/svg" viewBox="0 0 512.21 450.05"><g id="Layer_2" data-name="Layer 2"><g id="Outline"><path d="M373.44,0A136.51,136.51,0,0,0,256.11,70.4,136.54,136.54,0,0,0,138.77,0,145.06,145.06,0,0,0,.11,150.4c0,97,102.1,202.94,187.73,274.77a106.1,106.1,0,0,0,136.53,0C410,353.34,512.11,247.4,512.11,150.4A145.07,145.07,0,0,0,373.44,0ZM297,392.53a63.43,63.43,0,0,1-81.71,0c-109.61-92-172.48-180.2-172.48-242.13a102.4,102.4,0,0,1,96-107.73,102.39,102.39,0,0,1,96,107.73,21.34,21.34,0,0,0,42.67,0,102.39,102.39,0,0,1,96-107.73,102.4,102.4,0,0,1,96,107.73c0,61.93-62.87,150.17-172.48,242.05Z"/></g></g></svg>